<?xml version="1.0" encoding="iso-8859-1"?>
<!-- Generator: Adobe Illustrator 19.0.0, SVG Export Plug-In . SVG Version: 6.00 Build 0)  -->
<svg version="1.1" id="Capa_1" xmlns="http://www.w3.org/2000/svg" xmlns:xlink="http://www.w3.org/1999/xlink" x="0px" y="0px"
	 viewBox="0 0 512 512" style="enable-background:new 0 0 512 512;" xml:space="preserve">
<g>
	<g transform="translate(1 1)">
		<g>
			<g>
				<path style="fill:#C52828;" d="M16.067,229.4H127c4.713,0,8.533,3.821,8.533,8.533v59.733c0,4.713-3.82,8.533-8.533,8.533
					H16.067c-4.713,0-8.533-3.82-8.533-8.533v-59.733C7.533,233.221,11.354,229.4,16.067,229.4z"/>
				<path style="fill:#C52828;" d="M16.067,7.533H127c4.713,0,8.533,3.821,8.533,8.533V75.8c0,4.713-3.82,8.533-8.533,8.533H16.067
					c-4.713,0-8.533-3.82-8.533-8.533V16.067C7.533,11.354,11.354,7.533,16.067,7.533z"/>
				<path style="fill:#C52828;" d="M178.2,7.533h153.6c4.713,0,8.533,3.821,8.533,8.533V75.8c0,4.713-3.82,8.533-8.533,8.533H178.2
					c-4.713,0-8.533-3.82-8.533-8.533V16.067C169.667,11.354,173.487,7.533,178.2,7.533z"/>
			</g>
			<path style="fill:#F44335;" d="M237.933,130.669V127c-0.014-4.707-3.826-8.52-8.533-8.533H16.067
				c-4.707,0.014-8.52,3.826-8.533,8.533v59.733c0.014,4.707,3.826,8.52,8.533,8.533h173.056l6.144-42.667L237.933,130.669z"/>
			<path style="fill:#C52828;" d="M502.467,127v59.733c-0.014,4.707-3.826,8.519-8.533,8.533H323.267l-8.533-51.2l-42.667-8.533V127
				c0.014-4.707,3.826-8.519,8.533-8.533h213.333C498.64,118.481,502.453,122.293,502.467,127z"/>
			<path style="fill:#F44335;" d="M141.251,340.333l-3.157,30.549l-4.864,46.251H16.067c-4.707-0.014-8.519-3.826-8.533-8.533
				v-59.733c0.014-4.707,3.826-8.519,8.533-8.533H141.251z"/>
			<g>
				<path style="fill:#C52828;" d="M502.467,348.867V408.6c-0.014,4.707-3.826,8.519-8.533,8.533H386.669l0.939-76.8h106.325
					C498.64,340.347,502.453,344.16,502.467,348.867z"/>
				<path style="fill:#C52828;" d="M383,7.533h110.933c4.713,0,8.533,3.821,8.533,8.533V75.8c0,4.713-3.821,8.533-8.533,8.533H383
					c-4.713,0-8.533-3.82-8.533-8.533V16.067C374.467,11.354,378.287,7.533,383,7.533z"/>
			</g>
		</g>
		<path style="fill:none;stroke:#000000;stroke-width:2;stroke-linecap:round;stroke-linejoin:round;" d="M262.936,306.2h-7.68"/>
		<g>
			<path style="fill:#C52828;" d="M383,229.4h110.933c4.713,0,8.533,3.821,8.533,8.533v59.733c0,4.713-3.821,8.533-8.533,8.533H383
				c-4.713,0-8.533-3.82-8.533-8.533v-59.733C374.467,233.221,378.287,229.4,383,229.4z"/>
			<g>
				<path style="fill:#F44335;" d="M16.067,229.4H101.4c4.713,0,8.533,3.821,8.533,8.533v59.733c0,4.713-3.821,8.533-8.533,8.533
					H16.067c-4.713,0-8.533-3.82-8.533-8.533v-59.733C7.533,233.221,11.354,229.4,16.067,229.4z"/>
				<path style="fill:#F44335;" d="M16.067,7.533H101.4c4.713,0,8.533,3.821,8.533,8.533V75.8c0,4.713-3.821,8.533-8.533,8.533
					H16.067c-4.713,0-8.533-3.82-8.533-8.533V16.067C7.533,11.354,11.354,7.533,16.067,7.533z"/>
				<path style="fill:#F44335;" d="M178.2,7.533h128c4.713,0,8.533,3.821,8.533,8.533V75.8c0,4.713-3.82,8.533-8.533,8.533h-128
					c-4.713,0-8.533-3.82-8.533-8.533V16.067C169.667,11.354,173.487,7.533,178.2,7.533z"/>
				<path style="fill:#F44335;" d="M476.867,127v59.733c-0.014,4.707-3.826,8.519-8.533,8.533H323.267l-8.533-51.2l-42.667-8.533
					V127c0.014-4.707,3.826-8.519,8.533-8.533h187.733C473.04,118.481,476.853,122.293,476.867,127z"/>
				<path style="fill:#F44335;" d="M476.867,348.867V408.6c-0.014,4.707-3.826,8.519-8.533,8.533h-81.664l0.939-76.8h80.725
					C473.04,340.347,476.853,344.16,476.867,348.867z"/>
				<path style="fill:#F44335;" d="M383,7.533h85.333c4.713,0,8.533,3.821,8.533,8.533V75.8c0,4.713-3.821,8.533-8.533,8.533H383
					c-4.713,0-8.533-3.82-8.533-8.533V16.067C374.467,11.354,378.287,7.533,383,7.533z"/>
				<path style="fill:#F44335;" d="M383,229.4h85.333c4.713,0,8.533,3.821,8.533,8.533v59.733c0,4.713-3.821,8.533-8.533,8.533H383
					c-4.713,0-8.533-3.82-8.533-8.533v-59.733C374.467,233.221,378.287,229.4,383,229.4z"/>
			</g>
			<path style="fill:#F29C1F;" d="M308.333,494.445c-0.085,0.085-0.256,0.171-0.341,0.256"/>
			<path style="fill:#CFD8DC;" d="M340.333,169.667V280.6H306.2V169.667c-0.027-9.414-7.652-17.039-17.067-17.067h-68.267
				c-9.414,0.028-17.039,7.652-17.067,17.067V280.6h-34.133V169.667c0.022-28.268,22.932-51.178,51.2-51.2h68.267
				C317.401,118.489,340.311,141.399,340.333,169.667z"/>
			<path style="fill:#00695C;" d="M400.067,297.667v170.667c0.002,9.053-3.593,17.737-9.995,24.139
				c-6.402,6.402-15.085,9.997-24.139,9.995H144.067c-9.053,0.002-17.737-3.593-24.139-9.995
				c-6.402-6.402-9.997-15.085-9.995-24.139V297.667c-0.014-15.564,10.524-29.158,25.6-33.024c2.78-0.762,5.651-1.135,8.533-1.109
				h221.867c2.882-0.026,5.754,0.347,8.533,1.109C389.543,268.509,400.08,282.103,400.067,297.667z"/>
			<path style="fill:#009688;" d="M374.467,297.667v170.667c0.002,9.053-3.593,17.737-9.995,24.139
				c-6.402,6.402-15.085,9.997-24.139,9.995H144.067c-9.053,0.002-17.737-3.593-24.139-9.995
				c-6.402-6.402-9.997-15.085-9.995-24.139V297.667c-0.014-15.564,10.524-29.158,25.6-33.024c2.78-0.762,5.651-1.135,8.533-1.109
				h196.267c2.882-0.026,5.754,0.347,8.533,1.109C363.943,268.509,374.48,282.103,374.467,297.667z"/>
			<circle style="fill:#CFD8DC;" cx="255" cy="383" r="76.8"/>
			<circle style="fill:#00695C;" cx="255" cy="374.467" r="25.6"/>
		</g>
	</g>
	<g>
		<path d="M17.067,93.867H128c9.421-0.012,17.054-7.646,17.067-17.067V17.067C145.054,7.646,137.421,0.012,128,0H17.067
			C7.646,0.012,0.012,7.646,0,17.067V76.8C0.012,86.221,7.646,93.854,17.067,93.867z M17.067,17.067H128l0.017,59.733H17.067V17.067
			z"/>
		<path d="M59.733,34.133H42.667c-4.713,0-8.533,3.821-8.533,8.533s3.821,8.533,8.533,8.533h17.067c4.713,0,8.533-3.821,8.533-8.533
			S64.446,34.133,59.733,34.133z"/>
		<path d="M332.8,93.867c9.421-0.012,17.054-7.646,17.067-17.067V17.067C349.854,7.646,342.221,0.012,332.8,0H179.2
			c-9.421,0.012-17.054,7.646-17.067,17.067V76.8c0.012,9.421,7.646,17.054,17.067,17.067H332.8z M179.2,17.067h153.6l0.017,59.733
			H179.2V17.067z"/>
		<path d="M247.467,34.133H204.8c-4.713,0-8.533,3.821-8.533,8.533s3.821,8.533,8.533,8.533h42.667c4.713,0,8.533-3.821,8.533-8.533
			S252.18,34.133,247.467,34.133z"/>
		<path d="M85.333,145.067H42.667c-4.713,0-8.533,3.82-8.533,8.533s3.821,8.533,8.533,8.533h42.667c4.713,0,8.533-3.821,8.533-8.533
			S90.046,145.067,85.333,145.067z"/>
		<path d="M494.933,110.933H17.067C7.646,110.946,0.012,118.579,0,128v59.733c0.012,9.421,7.646,17.054,17.067,17.067h145.067V256
			h-17.067v-17.067c-0.012-9.421-7.646-17.054-17.067-17.067H17.067C7.646,221.879,0.012,229.513,0,238.933v59.733
			c0.012,9.421,7.646,17.054,17.067,17.067H102.4V332.8H17.067C7.646,332.812,0.012,340.446,0,349.867V409.6
			c0.012,9.421,7.646,17.054,17.067,17.067H102.4v42.667c0.028,23.553,19.114,42.639,42.667,42.667h221.867
			c23.553-0.028,42.639-19.114,42.667-42.667v-42.667h85.333c9.421-0.012,17.054-7.646,17.067-17.067v-59.733
			c-0.012-9.421-7.646-17.054-17.067-17.067H409.6v-17.067h85.333c9.421-0.012,17.054-7.646,17.067-17.067v-59.733
			c-0.012-9.421-7.646-17.054-17.067-17.067H384c-9.421,0.012-17.054,7.646-17.067,17.067V256h-17.067v-51.2h145.067
			c9.421-0.012,17.054-7.646,17.067-17.067V128C511.988,118.579,504.354,110.946,494.933,110.933z M17.067,187.733V128h163.078
			c-11.517,11.208-18.013,26.596-18.011,42.667v17.067H17.067z M17.067,298.667v-59.733H128v20.667
			c-15.559,6.754-25.618,22.105-25.6,39.066H17.067z M17.067,349.867H102.4V409.6H17.067V349.867z M494.933,349.867V409.6H409.6
			v-59.733H494.933z M494.933,238.933v59.733H409.6c0.024-16.966-10.036-32.324-25.6-39.08v-20.654H494.933z M373.358,273.908
			c11.304,2.893,19.201,13.09,19.175,24.758v170.667c-0.015,14.132-11.468,25.585-25.6,25.6H145.067
			c-14.132-0.015-25.585-11.468-25.6-25.6V298.667c-0.005-11.738,7.986-21.97,19.375-24.808c2.028-0.55,4.123-0.817,6.225-0.792
			h221.867C369.104,273.046,371.266,273.329,373.358,273.908z M298.667,256h-85.333v-85.333c0.003-4.712,3.822-8.53,8.533-8.533
			h68.267c4.712,0.003,8.53,3.822,8.533,8.533V256z M315.733,256v-85.333c-0.015-14.132-11.468-25.585-25.6-25.6h-68.267
			c-14.132,0.015-25.585,11.468-25.6,25.6V256H179.2v-85.333c0.028-23.553,19.114-42.639,42.667-42.667h68.267
			c23.553,0.028,42.639,19.114,42.667,42.667V256H315.733z M494.933,187.733H349.867v-17.067
			c0.002-16.07-6.494-31.459-18.012-42.667h163.078V187.733z"/>
		<path d="M85.333,366.933H42.667c-4.713,0-8.533,3.821-8.533,8.533c0,4.713,3.821,8.533,8.533,8.533h42.667
			c4.713,0,8.533-3.821,8.533-8.533C93.867,370.754,90.046,366.933,85.333,366.933z"/>
		<path d="M494.933,0H384c-9.421,0.012-17.054,7.646-17.067,17.067V76.8c0.012,9.421,7.646,17.054,17.067,17.067h110.933
			c9.421-0.012,17.054-7.646,17.067-17.067V17.067C511.988,7.646,504.354,0.012,494.933,0z M384,76.8V17.067h110.933L494.95,76.8
			H384z"/>
		<path d="M469.333,34.133H460.8c-4.713,0-8.533,3.821-8.533,8.533s3.82,8.533,8.533,8.533h8.533c4.713,0,8.533-3.821,8.533-8.533
			S474.046,34.133,469.333,34.133z"/>
		<path d="M59.733,256H42.667c-4.713,0-8.533,3.821-8.533,8.533s3.821,8.533,8.533,8.533h17.067c4.713,0,8.533-3.82,8.533-8.533
			S64.446,256,59.733,256z"/>
		<path d="M460.8,273.067h8.533c4.713,0,8.533-3.82,8.533-8.533S474.046,256,469.333,256H460.8c-4.713,0-8.533,3.821-8.533,8.533
			S456.087,273.067,460.8,273.067z"/>
		<path d="M256,298.667c-47.128,0-85.333,38.205-85.333,85.333s38.205,85.333,85.333,85.333s85.333-38.205,85.333-85.333
			C341.278,336.895,303.105,298.722,256,298.667z M256,452.267c-37.703,0-68.267-30.564-68.267-68.267s30.564-68.267,68.267-68.267
			c37.703,0,68.267,30.564,68.267,68.267C324.224,421.685,293.685,452.224,256,452.267z"/>
		<path d="M256,341.333c-17.176-0.036-31.692,12.723-33.86,29.761c-2.168,17.039,8.689,33.026,25.327,37.293v18.278
			c0,4.713,3.821,8.533,8.533,8.533c4.713,0,8.533-3.82,8.533-8.533v-18.278c16.638-4.267,27.495-20.255,25.327-37.293
			C287.692,354.056,273.176,341.298,256,341.333z M256,392.533c-9.426,0-17.067-7.641-17.067-17.067
			c0-9.426,7.641-17.067,17.067-17.067c9.426,0,17.067,7.641,17.067,17.067C273.054,384.887,265.421,392.521,256,392.533z"/>
	</g>
</g>
<g>
</g>
<g>
</g>
<g>
</g>
<g>
</g>
<g>
</g>
<g>
</g>
<g>
</g>
<g>
</g>
<g>
</g>
<g>
</g>
<g>
</g>
<g>
</g>
<g>
</g>
<g>
</g>
<g>
</g>
</svg>
